<?xml version="1.0" encoding="UTF-8" standalone="no"?>
<!-- Created with Inkscape (http://www.inkscape.org/) -->

<svg
   xmlns:dc="http://purl.org/dc/elements/1.1/"
   xmlns:cc="http://creativecommons.org/ns#"
   xmlns:rdf="http://www.w3.org/1999/02/22-rdf-syntax-ns#"
   xmlns:svg="http://www.w3.org/2000/svg"
   xmlns="http://www.w3.org/2000/svg"
   xmlns:sodipodi="http://sodipodi.sourceforge.net/DTD/sodipodi-0.dtd"
   xmlns:inkscape="http://www.inkscape.org/namespaces/inkscape"
   width="64.661667"
   height="23.775049"
   viewBox="0 0 17.108399 6.2904818"
   version="1.1"
   id="svg23492"
   inkscape:version="0.92.0 r15299"
   sodipodi:docname="curtis.svg">
  <defs
     id="defs23486" />
  <sodipodi:namedview
     id="base"
     pagecolor="#ffffff"
     bordercolor="#666666"
     borderopacity="1.0"
     inkscape:pageopacity="0.0"
     inkscape:pageshadow="2"
     inkscape:zoom="14.090102"
     inkscape:cx="31.830813"
     inkscape:cy="11.385986"
     inkscape:document-units="mm"
     inkscape:current-layer="layer1"
     showgrid="false"
     fit-margin-top="0"
     fit-margin-left="0"
     fit-margin-right="0"
     fit-margin-bottom="0"
     units="px"
     inkscape:window-width="1280"
     inkscape:window-height="744"
     inkscape:window-x="-4"
     inkscape:window-y="-4"
     inkscape:window-maximized="1" />
  <metadata
     id="metadata23489">
    <rdf:RDF>
      <cc:Work
         rdf:about="">
        <dc:format>image/svg+xml</dc:format>
        <dc:type
           rdf:resource="http://purl.org/dc/dcmitype/StillImage" />
        <dc:title></dc:title>
      </cc:Work>
    </rdf:RDF>
  </metadata>
  <g
     inkscape:label="Layer 1"
     inkscape:groupmode="layer"
     id="layer1"
     transform="translate(-56.590002,-164.45421)">
    <g
       id="g23534"
       transform="translate(0.1322914,-0.1322885)">
      <path
         d="m 59.373046,166.25235 v 2.81905 c 0,0 0.03069,1.61254 1.630892,1.61254 0,0 0.598664,0.0187 1.105605,-0.47801 v 0.43603 h 1.226608 v -4.38961 h -1.316213 v 2.26201 c 0,0 0.07973,0.81068 -0.467784,0.95215 -0.738716,0.1912 -0.821972,-0.49707 -0.821972,-0.49707 v -2.72626"
         style="fill:#2a3e77;fill-opacity:1;fill-rule:nonzero;stroke:none;stroke-width:0.35277778"
         id="path17423"
         inkscape:connector-curvature="0" />
      <path
         d="m 66.092404,166.20719 c -0.04833,-0.004 -0.09772,-0.005 -0.150636,-0.005 0,0 -0.599017,-0.0208 -1.1049,0.4752 v -0.43463 h -1.225903 v 4.38926 h 1.31692 v -2.50507 c 0,0 -0.05891,-0.43039 0.338313,-0.62265 0.303389,-0.14676 0.543278,-0.13688 0.826206,-0.0557"
         style="fill:#2a3e77;fill-opacity:1;fill-rule:nonzero;stroke:none;stroke-width:0.35277778"
         id="path17427"
         inkscape:connector-curvature="0" />
      <path
         d="m 68.274344,166.27349 h -0.639233 v -1.54658 h -1.368778 v 5.91538 h 1.368778 v -3.3147 h 0.639233"
         style="fill:#2a3e77;fill-opacity:1;fill-rule:nonzero;stroke:none;stroke-width:0.35277778"
         id="path17431"
         inkscape:connector-curvature="0" />
      <path
         inkscape:connector-curvature="0"
         id="path17433"
         style="fill:#2a3e77;fill-opacity:1;fill-rule:nonzero;stroke:none;stroke-width:0.35277778"
         d="m 68.493043,170.64228 h 1.29081 v -4.39914 h -1.29081 z" />
      <path
         d="m 71.679002,166.15144 c 0,0 1.520119,-0.091 1.611842,1.37936 h -1.267178 c 0,0 0.03422,-0.40569 -0.32385,-0.40569 -0.264583,0 -0.334786,0.22507 -0.334786,0.22507 0,0 -0.109009,0.36795 0.496005,0.50377 0.63112,0.14463 1.52012,0.39616 1.57092,1.37936 0.05221,0.98354 -1.0033,1.48978 -1.823861,1.48978 -0.820561,0 -1.68275,-0.53623 -1.724025,-1.40864 h 1.328561 c 0,0 0.04339,0.41416 0.333375,0.4258 0.248003,0.01 0.481541,-0.0215 0.477661,-0.35454 -0.0035,-0.22755 -0.188383,-0.33585 -0.517525,-0.42545 -0.41275,-0.1143 -1.378656,-0.16193 -1.510242,-1.2065 -0.131586,-1.04493 0.780697,-1.60232 1.683103,-1.60232"
         style="fill:#2a3e77;fill-opacity:1;fill-rule:nonzero;stroke:none;stroke-width:0.35277778"
         id="path17437"
         inkscape:connector-curvature="0" />
      <path
         d="m 59.125052,167.4225 v -1.25307 c -0.04974,-0.002 -0.09772,-0.006 -0.148872,-0.004 -1.378656,0.0797 -2.318456,0.9345 -2.384778,2.24155 0,0.0148 0,0.0307 -0.0014,0.0455 v 0.002 0.002 c 0.0014,0.0148 0.0014,0.0307 0.0014,0.0462 0.06632,1.30528 1.006122,2.16253 2.384778,2.2405 0.05115,0.004 0.09913,-0.001 0.148872,-0.003 v -1.25342 c 0,0 -1.223786,-0.004 -1.223786,-1.02693 v -0.004 -0.002 -0.002 -0.004 c 0,-1.02235 1.223786,-1.02694 1.223786,-1.02694"
         style="fill:#2a3e77;fill-opacity:1;fill-rule:nonzero;stroke:none;stroke-width:0.35277778"
         id="path17441"
         inkscape:connector-curvature="0" />
      <path
         inkscape:connector-curvature="0"
         id="path17443"
         style="fill:#2a3e77;fill-opacity:1;fill-rule:nonzero;stroke:none;stroke-width:0.35277778"
         d="m 68.485983,165.84097 h 1.29787 v -1.12218 h -1.29787 z" />
    </g>
  </g>
</svg>
