<?xml version="1.0" encoding="utf-8"?>
<!-- Generator: Adobe Illustrator 25.2.0, SVG Export Plug-In . SVG Version: 6.00 Build 0)  -->
<svg version="1.1" id="Layer_1" xmlns="http://www.w3.org/2000/svg" xmlns:xlink="http://www.w3.org/1999/xlink" x="0px" y="0px"
	 viewBox="0 0 2037 768" style="enable-background:new 0 0 2037 768;" xml:space="preserve">
<style type="text/css">
	.st0{fill:#444094;}
</style>
<g>
	<path class="st0" d="M818.5,255.4c-12.8,13.9-20.6,22.4-28.2,30.6c-7.8,0-15.1,0-22.9,0c-0.6-11-5.9-22,9.6-30.6
		C786,255.4,798.4,255.4,818.5,255.4z"/>
	<path class="st0" d="M146.5,298.7c28.9,0,57.8-0.6,86.7,0.2c31.6,0.9,58.2,23.6,63.5,52.7c5.8,32-11.5,62.1-42.6,72.4
		c-8.9,3-18.7,4-28.1,4.7c-9.8,0.8-19.8,0.2-30.4,0.2c0,13,0,25.8,0,38.6c0,12.7,0,25.4,0,38.8c-16.5,0-32.8,0-49.1,0
		c0-40.6,0-81.1,0-121.7c1.8-0.2,3.7-0.6,5.5-0.6c18.5,0,37.1,0,55.6,0c7.4,0,14.8,0.3,22.1-0.3c8.3-0.6,14.6-5,17.5-13
		c2.7-7.5,1.4-14.6-4.1-20.6c-4.9-5.3-11.5-6.7-18.5-6.7c-20.9,0-41.8,0-62.7,0c-5.2,0-10.4-0.2-15.5-0.3
		C146.5,328.3,146.5,313.5,146.5,298.7z"/>
	<path class="st0" d="M1312.9,343.3c0-15,0-29.5,0-44.5c1.4-0.1,2.8-0.3,4.1-0.3c28.1,0,56.3,0,84.4,0c20.6,0,38.9,6.1,53.9,20.9
		c27.3,26.9,24.9,80.4-16.3,100.7c-1,0.5-1.9,1-3.3,1.7c21.3,28,42.6,55.8,64.2,84.1c-2,0.1-3.3,0.3-4.6,0.3
		c-16.5,0-33-0.1-49.5,0.1c-3,0-4.8-1-6.6-3.4c-18-23.6-36.2-47.1-54.3-70.7c-1.9-2.5-3.8-3.7-7-3.5c-5.3,0.3-10.6,0.1-16.5,0.1
		c0,25.8,0,51.3,0,77.1c-16.3,0-32.2,0-48.4,0c0-40.4,0-80.9,0-122.1c1.8,0,3.6,0,5.4,0c26.7,0,53.5,0,80.2,0c2.8,0,5.7,0.1,8.5-0.5
		c10.3-1.9,17.1-10.2,16.8-20.2c-0.3-9.9-7.1-17.6-17.4-19.3c-2.8-0.5-5.6-0.6-8.5-0.6c-26.4,0-52.8,0-79.2,0
		C1317,343.3,1315.1,343.3,1312.9,343.3z"/>
	<path class="st0" d="M1550.7,506.3c0-15.2,0-29.7,0-45c2.2,0,4.2,0,6.2,0c13.7-0.3,27.5,0.7,40.9-1.3c30.5-4.6,50.1-30.7,48.5-62.5
		c-1.4-27.7-25.2-51.5-54.1-53.5c-9.7-0.7-19.4-0.1-29.8-0.1c0,25.6,0,51.2,0,77.1c-16.4,0-32.2,0-48.4,0c0-40.7,0-81.3,0-122.1
		c1.1-0.1,2-0.3,2.9-0.3c26.1,0,52.2-0.4,78.3,0.2c50.8,1.2,94.4,39.9,100.9,88.9c7,53-25.1,101.3-77,114.5c-11,2.8-22.6,3.3-34,3.9
		C1573.8,506.8,1562.4,506.3,1550.7,506.3z"/>
	<path class="st0" d="M558.4,506c16,0,31.8,0,48.2,0c0-1.9,0-3.6,0-5.3c0-19.8-0.1-39.6,0.1-59.4c0-2.8,0.9-5.9,2.3-8.4
		c24.9-43.1,49.9-86.1,74.9-129.1c0.9-1.5,1.6-3,2.7-4.9c-1.6-0.2-2.7-0.4-3.9-0.4c-15.7,0-31.4,0.1-47.1-0.1c-3.1,0-4.7,1-6.3,3.7
		c-23.1,40.2-46.3,80.2-69.4,120.4c-1,1.7-1.7,3.8-1.8,5.7c-0.1,25-0.1,50-0.1,75C558.1,504.1,558.3,505,558.4,506z"/>
	<path class="st0" d="M1819.4,424.7c6.7-14,13.2-27.5,19.6-41c30.5,7,53.2,35.6,51.5,65.5c-1.3,22-13,38.2-31.3,49.9
		c-31.7,20.4-82.8,17.4-111.7-6.6c-13.2-10.9-20.9-25.1-24.4-42.1c14.9-5.4,29.5-10.7,44.5-16.1c0.8,2.4,1.5,4.6,2.2,6.7
		c8.6,24.8,36.9,35.1,59.5,21.6c6.8-4.1,10.7-10,10.5-18.2c-0.1-7.7-4.9-11.9-11-15.1C1825.9,427.7,1822.9,426.4,1819.4,424.7z"/>
	<path class="st0" d="M1886.9,339.4c-14.5,7.1-28.6,14-42.7,20.9c-2.7-4.2-4.9-8.4-7.9-12c-10.5-12.7-30.9-15.9-45-7.2
		c-4.9,3-8.6,7-8.4,13.2c0.2,6.1,4.5,9,9.2,11.5c2.9,1.5,5.9,2.7,9.2,4.2c-6.6,14.1-13.2,28-19.8,42.1
		c-13.3-5.1-25.6-11.2-35.4-21.4c-20.5-21.4-18.3-56.3,4.9-77.1c28.7-25.8,79.3-28.8,110.5-6.5
		C1873,315.2,1881.4,325.9,1886.9,339.4z"/>
	<path class="st0" d="M1032.3,443.7c10.1,12.5,19.8,24.6,29.5,36.6c-22.6,24.4-67.3,38.4-109.3,27.3c-48.3-12.7-71.3-51.9-75.9-82.9
		c1.4-0.1,2.7-0.3,4.1-0.3c14.5,0,28.9,0.1,43.4-0.1c3.2,0,4.6,1.1,5.9,3.9c8.5,19.2,22.5,32.1,43.7,35.4
		c17.9,2.8,34.3-1.6,48.9-12.5C1025.7,448.8,1028.8,446.4,1032.3,443.7z"/>
	<path class="st0" d="M1032.8,360.4c-8.6-5.3-16.2-11.2-24.7-15c-31.2-13.7-63.9-0.8-77.9,30.3c-1.5,3.4-3.2,4.6-6.9,4.6
		c-14-0.2-28-0.1-42-0.1c-1.5,0-3.1,0-5.4,0c10.3-40.2,33.7-68.4,72.7-81.1c41.9-13.7,79.7-3.9,113.7,24.7
		C1052.1,336.5,1042.3,348.6,1032.8,360.4z"/>
	<path class="st0" d="M705.7,343c0-14.9,0-29.5,0-44.2c49.5,0,98.8,0,148.3,0c0,14.8,0,29.3,0,44.2C804.6,343,755.4,343,705.7,343z"
		/>
	<path class="st0" d="M705.7,423.2c0-14.9,0-29.5,0-44.2c49.5,0,98.8,0,148.3,0c0,14.8,0,29.3,0,44.2
		C804.6,423.2,755.4,423.2,705.7,423.2z"/>
	<path class="st0" d="M705.7,506.2c0-14.9,0-29.5,0-44.2c49.5,0,98.8,0,148.3,0c0,14.8,0,29.3,0,44.2
		C804.6,506.2,755.4,506.2,705.7,506.2z"/>
	<path class="st0" d="M576.6,374.1c-0.9-1.8-1.4-3-2-4c-13.1-22.7-26.1-45.5-39.2-68.1c-0.8-1.4-2.6-3.2-3.9-3.2
		c-17.6-0.2-35.2-0.1-53.3-0.1c0.7,1.5,1.1,2.6,1.7,3.7c13.3,22.8,26.5,45.6,39.9,68.3c0.9,1.5,2.8,3.4,4.3,3.4
		C541.3,374.1,558.5,374.1,576.6,374.1z"/>
	<path class="st0" d="M501.3,503c-27.3-67-54.5-134.1-81.7-201.1c-1.1-2.6-2.4-3.5-5.2-3.4c-12.6,0.1-25.2,0.2-37.7,0
		c-3.2,0-4.6,1-5.8,4c-5.2,13.1-55.3,138.7-55.3,138.7h45.6l30.9-79.1c0.3,0.5,0.6,1,0.9,1.7c5.7,14.6,34,98.5,34.1,98.9h-69.2
		h-52.1l-0.1,0.2L288,505.9l0.4,0c0,0.1-0.1,0.2-0.1,0.4c17,0,197.1,0,214.2,0C501.9,504.8,501.7,503.9,501.3,503z"/>
	<path class="st0" d="M1288.7,503c-27.3-67-54.5-134.1-81.7-201.1c-1.1-2.6-2.4-3.5-5.2-3.4c-12.6,0.1-25.2,0.2-37.7,0
		c-3.2,0-4.6,1-5.8,4c-5.2,13.1-55.3,138.7-55.3,138.7h45.6l30.9-79.1c0.3,0.5,0.6,1,0.9,1.7c5.7,14.6,34,98.5,34.1,98.9h-69.2
		h-52.1l-0.1,0.2l-17.6,43.1l0.4,0c0,0.1-0.1,0.2-0.1,0.4c17,0,197.1,0,214.2,0C1289.3,504.8,1289.1,503.9,1288.7,503z"/>
</g>
</svg>
